<svg width="364" height="50" viewBox="0 0 364 50" fill="none" xmlns="http://www.w3.org/2000/svg">
<path d="M182.051 14.8486C182.051 15.3408 181.953 15.7874 181.757 16.1885C181.565 16.5895 181.308 16.9154 180.984 17.166C180.602 17.4668 180.191 17.681 179.754 17.8086C179.316 17.9362 178.751 18 178.059 18H174.367V7.82129H181.183V9.02441H175.721V11.8135H178.1C178.792 11.8135 179.357 11.8545 179.795 11.9365C180.232 12.014 180.645 12.2031 181.032 12.5039C181.379 12.7728 181.634 13.1055 181.798 13.502C181.966 13.8984 182.051 14.3473 182.051 14.8486ZM180.636 14.876C180.636 14.5342 180.579 14.2334 180.465 13.9736C180.351 13.7139 180.173 13.5042 179.932 13.3447C179.681 13.1761 179.392 13.0736 179.063 13.0371C178.735 13.0007 178.273 12.9824 177.676 12.9824H175.721V16.8447H177.642C178.248 16.8447 178.713 16.8151 179.036 16.7559C179.364 16.6966 179.651 16.5827 179.897 16.4141C180.153 16.2363 180.34 16.029 180.458 15.792C180.576 15.5505 180.636 15.2451 180.636 14.876ZM190.37 14.1855C190.37 15.4297 190.051 16.4118 189.413 17.1318C188.775 17.8519 187.921 18.2119 186.85 18.2119C185.77 18.2119 184.91 17.8519 184.272 17.1318C183.639 16.4118 183.322 15.4297 183.322 14.1855C183.322 12.9414 183.639 11.9593 184.272 11.2393C184.91 10.5146 185.77 10.1523 186.85 10.1523C187.921 10.1523 188.775 10.5146 189.413 11.2393C190.051 11.9593 190.37 12.9414 190.37 14.1855ZM189.044 14.1855C189.044 13.1966 188.85 12.4629 188.463 11.9844C188.076 11.5013 187.538 11.2598 186.85 11.2598C186.152 11.2598 185.61 11.5013 185.223 11.9844C184.84 12.4629 184.648 13.1966 184.648 14.1855C184.648 15.1426 184.842 15.8695 185.229 16.3662C185.617 16.8584 186.157 17.1045 186.85 17.1045C187.533 17.1045 188.069 16.8607 188.456 16.373C188.848 15.8809 189.044 15.1517 189.044 14.1855ZM198.525 18H197.24V11.4443H194.39C194.376 11.8226 194.362 12.1872 194.349 12.5381C194.335 12.889 194.321 13.2057 194.308 13.4883C194.276 14.2493 194.223 14.8577 194.15 15.3135C194.077 15.7646 193.982 16.1406 193.863 16.4414C193.754 16.724 193.631 16.9541 193.494 17.1318C193.362 17.305 193.218 17.4622 193.063 17.6035C192.909 17.7402 192.735 17.8428 192.544 17.9111C192.357 17.9795 192.152 18.0137 191.929 18.0137C191.851 18.0137 191.737 18.0114 191.587 18.0068C191.441 18.0023 191.345 18 191.3 18V16.8789H191.368C191.405 16.8789 191.457 16.8812 191.525 16.8857C191.594 16.8903 191.651 16.8926 191.696 16.8926C191.806 16.8926 191.917 16.8766 192.031 16.8447C192.15 16.8128 192.25 16.7536 192.332 16.667C192.564 16.4391 192.751 16.054 192.893 15.5117C193.034 14.9694 193.127 14.1855 193.173 13.1602C193.191 12.7865 193.207 12.3444 193.221 11.834C193.239 11.319 193.255 10.8291 193.269 10.3643H198.525V18ZM205.833 15.6553C205.833 15.4229 205.792 15.2201 205.71 15.0469C205.632 14.8691 205.503 14.7256 205.32 14.6162C205.129 14.5023 204.91 14.4339 204.664 14.4111C204.423 14.3883 204.074 14.377 203.618 14.377H202.347V16.9746H203.591C204.047 16.9746 204.4 16.9564 204.65 16.9199C204.901 16.8789 205.118 16.8037 205.3 16.6943C205.487 16.5758 205.621 16.4368 205.703 16.2773C205.79 16.1133 205.833 15.9059 205.833 15.6553ZM207.159 15.6348C207.159 16.0039 207.084 16.3389 206.934 16.6396C206.788 16.9404 206.587 17.1842 206.332 17.3711C206.031 17.599 205.71 17.7607 205.368 17.8564C205.026 17.9521 204.587 18 204.049 18H201.062V10.3643H202.347V13.3379H204.083C204.657 13.3379 205.102 13.3675 205.416 13.4268C205.735 13.486 206.052 13.6318 206.366 13.8643C206.631 14.0602 206.829 14.3109 206.961 14.6162C207.093 14.9215 207.159 15.2611 207.159 15.6348ZM218.794 18H209.06V10.3643H210.345V16.8926H213.284V10.3643H214.569V16.8926H217.509V10.3643H218.794V18ZM227.831 14.1855C227.831 15.4297 227.512 16.4118 226.874 17.1318C226.236 17.8519 225.382 18.2119 224.311 18.2119C223.23 18.2119 222.371 17.8519 221.733 17.1318C221.1 16.4118 220.783 15.4297 220.783 14.1855C220.783 12.9414 221.1 11.9593 221.733 11.2393C222.371 10.5146 223.23 10.1523 224.311 10.1523C225.382 10.1523 226.236 10.5146 226.874 11.2393C227.512 11.9593 227.831 12.9414 227.831 14.1855ZM226.505 14.1855C226.505 13.1966 226.311 12.4629 225.924 11.9844C225.536 11.5013 224.999 11.2598 224.311 11.2598C223.613 11.2598 223.071 11.5013 222.684 11.9844C222.301 12.4629 222.109 13.1966 222.109 14.1855C222.109 15.1426 222.303 15.8695 222.69 16.3662C223.078 16.8584 223.618 17.1045 224.311 17.1045C224.994 17.1045 225.53 16.8607 225.917 16.373C226.309 15.8809 226.505 15.1517 226.505 14.1855ZM236.26 18H234.988V12.2646L230.989 18H229.827V10.3643H231.099V16.0176L235.057 10.3643H236.26V18ZM235.528 7.35645C235.506 8.03092 235.291 8.55729 234.886 8.93555C234.485 9.3138 233.899 9.50293 233.129 9.50293C232.359 9.50293 231.771 9.3138 231.365 8.93555C230.964 8.55729 230.752 8.03092 230.729 7.35645H231.898C231.903 7.83496 232.008 8.18132 232.213 8.39551C232.423 8.6097 232.728 8.7168 233.129 8.7168C233.535 8.7168 233.84 8.61198 234.045 8.40234C234.25 8.19271 234.355 7.84408 234.359 7.35645H235.528ZM249.433 17.5215C248.909 17.7676 248.457 17.9362 248.079 18.0273C247.705 18.123 247.332 18.1709 246.958 18.1709C246.402 18.1709 245.892 18.0911 245.427 17.9316C244.962 17.7676 244.563 17.5215 244.23 17.1934C243.898 16.8652 243.638 16.4505 243.451 15.9492C243.269 15.4479 243.178 14.8623 243.178 14.1924C243.178 12.9756 243.515 12.0049 244.189 11.2803C244.864 10.5511 245.787 10.1865 246.958 10.1865C247.4 10.1865 247.833 10.248 248.257 10.3711C248.685 10.4941 249.077 10.6445 249.433 10.8223V12.251H249.357C248.934 11.9274 248.514 11.6882 248.1 11.5332C247.689 11.3783 247.291 11.3008 246.903 11.3008C246.142 11.3008 245.552 11.556 245.133 12.0664C244.718 12.5768 244.511 13.2855 244.511 14.1924C244.511 15.0993 244.718 15.8034 245.133 16.3047C245.548 16.806 246.138 17.0566 246.903 17.0566C247.172 17.0566 247.439 17.0225 247.703 16.9541C247.972 16.8857 248.216 16.7969 248.435 16.6875C248.608 16.6009 248.785 16.4984 248.968 16.3799C249.155 16.2568 249.285 16.1657 249.357 16.1064H249.433V17.5215ZM258.087 18H256.405L253.233 14.5H252.536V18H251.251V10.3643H252.536V13.6592C252.96 13.6592 253.302 13.584 253.562 13.4336C253.821 13.2786 254.042 13.0326 254.225 12.6953C254.288 12.5723 254.35 12.4424 254.409 12.3057C254.473 12.1644 254.535 12.0299 254.594 11.9023C254.831 11.3874 255.127 11.0023 255.482 10.7471C255.838 10.4919 256.348 10.3643 257.014 10.3643H257.602V11.4717H257.034C256.674 11.4717 256.392 11.5492 256.187 11.7041C255.986 11.8545 255.804 12.1211 255.64 12.5039C255.457 12.9323 255.264 13.2536 255.059 13.4678C254.858 13.6774 254.644 13.8369 254.416 13.9463L258.087 18ZM265.641 18H264.355V11.4443H261.505C261.491 11.8226 261.478 12.1872 261.464 12.5381C261.45 12.889 261.437 13.2057 261.423 13.4883C261.391 14.2493 261.339 14.8577 261.266 15.3135C261.193 15.7646 261.097 16.1406 260.979 16.4414C260.869 16.724 260.746 16.9541 260.609 17.1318C260.477 17.305 260.334 17.4622 260.179 17.6035C260.024 17.7402 259.851 17.8428 259.659 17.9111C259.472 17.9795 259.267 18.0137 259.044 18.0137C258.966 18.0137 258.853 18.0114 258.702 18.0068C258.556 18.0023 258.461 18 258.415 18V16.8789H258.483C258.52 16.8789 258.572 16.8812 258.641 16.8857C258.709 16.8903 258.766 16.8926 258.812 16.8926C258.921 16.8926 259.033 16.8766 259.146 16.8447C259.265 16.8128 259.365 16.7536 259.447 16.667C259.68 16.4391 259.867 16.054 260.008 15.5117C260.149 14.9694 260.243 14.1855 260.288 13.1602C260.306 12.7865 260.322 12.3444 260.336 11.834C260.354 11.319 260.37 10.8291 260.384 10.3643H265.641V18ZM274.11 18H272.832V17.1865C272.718 17.264 272.563 17.3734 272.367 17.5146C272.176 17.6514 271.989 17.7607 271.807 17.8428C271.592 17.9476 271.346 18.0342 271.068 18.1025C270.79 18.1755 270.465 18.2119 270.091 18.2119C269.403 18.2119 268.819 17.984 268.341 17.5283C267.862 17.0726 267.623 16.4915 267.623 15.7852C267.623 15.2064 267.746 14.7393 267.992 14.3838C268.243 14.0238 268.598 13.7412 269.059 13.5361C269.523 13.3311 270.082 13.1921 270.733 13.1191C271.385 13.0462 272.085 12.9915 272.832 12.9551V12.7568C272.832 12.4652 272.78 12.2236 272.675 12.0322C272.575 11.8408 272.429 11.6904 272.237 11.5811C272.055 11.4762 271.836 11.4056 271.581 11.3691C271.326 11.3327 271.059 11.3145 270.781 11.3145C270.444 11.3145 270.068 11.36 269.653 11.4512C269.239 11.5378 268.81 11.6654 268.368 11.834H268.3V10.5283C268.55 10.46 268.913 10.3848 269.387 10.3027C269.861 10.2207 270.328 10.1797 270.788 10.1797C271.326 10.1797 271.793 10.2253 272.189 10.3164C272.59 10.403 272.937 10.5534 273.229 10.7676C273.516 10.9772 273.734 11.2484 273.885 11.5811C274.035 11.9137 274.11 12.3262 274.11 12.8184V18ZM272.832 16.1201V13.9941C272.44 14.0169 271.978 14.0511 271.444 14.0967C270.916 14.1423 270.496 14.2083 270.187 14.2949C269.817 14.3997 269.519 14.5638 269.291 14.7871C269.063 15.0059 268.949 15.3089 268.949 15.6963C268.949 16.1338 269.081 16.4642 269.346 16.6875C269.61 16.9062 270.013 17.0156 270.556 17.0156C271.007 17.0156 271.419 16.929 271.793 16.7559C272.167 16.5781 272.513 16.3662 272.832 16.1201ZM283.517 19.832H282.32V17.9795H276.578V19.832H275.382V16.9062H276.209C276.742 16.0267 277.139 15.0127 277.398 13.8643C277.663 12.7113 277.795 11.5446 277.795 10.3643H282.594V16.9062H283.517V19.832ZM281.309 16.9062V11.4443H279.005C278.946 12.5882 278.77 13.6318 278.479 14.5752C278.187 15.5186 277.852 16.2956 277.474 16.9062H281.309ZM179.979 42.5215C179.455 42.7676 179.004 42.9362 178.626 43.0273C178.252 43.123 177.879 43.1709 177.505 43.1709C176.949 43.1709 176.438 43.0911 175.974 42.9316C175.509 42.7676 175.11 42.5215 174.777 42.1934C174.445 41.8652 174.185 41.4505 173.998 40.9492C173.816 40.4479 173.725 39.8623 173.725 39.1924C173.725 37.9756 174.062 37.0049 174.736 36.2803C175.411 35.5511 176.334 35.1865 177.505 35.1865C177.947 35.1865 178.38 35.248 178.804 35.3711C179.232 35.4941 179.624 35.6445 179.979 35.8223V37.251H179.904C179.48 36.9274 179.061 36.6882 178.646 36.5332C178.236 36.3783 177.838 36.3008 177.45 36.3008C176.689 36.3008 176.099 36.556 175.68 37.0664C175.265 37.5768 175.058 38.2855 175.058 39.1924C175.058 40.0993 175.265 40.8034 175.68 41.3047C176.094 41.806 176.685 42.0566 177.45 42.0566C177.719 42.0566 177.986 42.0225 178.25 41.9541C178.519 41.8857 178.763 41.7969 178.981 41.6875C179.155 41.6009 179.332 41.4984 179.515 41.3799C179.701 41.2568 179.831 41.1657 179.904 41.1064H179.979V42.5215ZM187.355 36.4922H184.594V43H183.309V36.4922H180.547V35.3643H187.355V36.4922ZM195.408 39.0898C195.408 39.7096 195.319 40.277 195.142 40.792C194.964 41.3024 194.713 41.7354 194.39 42.0908C194.089 42.4281 193.733 42.6901 193.323 42.877C192.918 43.0592 192.487 43.1504 192.031 43.1504C191.635 43.1504 191.275 43.1071 190.951 43.0205C190.632 42.9339 190.306 42.7995 189.974 42.6172V45.8164H188.688V35.3643H189.974V36.1641C190.315 35.877 190.698 35.6377 191.122 35.4463C191.55 35.2503 192.006 35.1523 192.489 35.1523C193.41 35.1523 194.125 35.501 194.636 36.1982C195.151 36.891 195.408 37.8548 195.408 39.0898ZM194.082 39.124C194.082 38.2035 193.925 37.5153 193.61 37.0596C193.296 36.6038 192.813 36.376 192.161 36.376C191.792 36.376 191.421 36.4557 191.047 36.6152C190.673 36.7747 190.315 36.9844 189.974 37.2441V41.5713C190.338 41.7354 190.65 41.847 190.91 41.9062C191.174 41.9655 191.473 41.9951 191.806 41.9951C192.521 41.9951 193.079 41.7536 193.48 41.2705C193.882 40.7874 194.082 40.0719 194.082 39.124ZM203.919 39.1855C203.919 40.4297 203.6 41.4118 202.962 42.1318C202.324 42.8519 201.469 43.2119 200.398 43.2119C199.318 43.2119 198.459 42.8519 197.821 42.1318C197.188 41.4118 196.871 40.4297 196.871 39.1855C196.871 37.9414 197.188 36.9593 197.821 36.2393C198.459 35.5146 199.318 35.1523 200.398 35.1523C201.469 35.1523 202.324 35.5146 202.962 36.2393C203.6 36.9593 203.919 37.9414 203.919 39.1855ZM202.593 39.1855C202.593 38.1966 202.399 37.4629 202.012 36.9844C201.624 36.5013 201.087 36.2598 200.398 36.2598C199.701 36.2598 199.159 36.5013 198.771 36.9844C198.389 37.4629 198.197 38.1966 198.197 39.1855C198.197 40.1426 198.391 40.8695 198.778 41.3662C199.166 41.8584 199.706 42.1045 200.398 42.1045C201.082 42.1045 201.618 41.8607 202.005 41.373C202.397 40.8809 202.593 40.1517 202.593 39.1855ZM212.348 43H211.076V37.2646L207.077 43H205.915V35.3643H207.187V41.0176L211.145 35.3643H212.348V43ZM220.496 36.4922H217.734V43H216.449V36.4922H213.688V35.3643H220.496V36.4922ZM228.221 39.3154H222.595C222.595 39.7848 222.665 40.195 222.807 40.5459C222.948 40.8923 223.142 41.1771 223.388 41.4004C223.625 41.6191 223.905 41.7832 224.229 41.8926C224.557 42.002 224.917 42.0566 225.309 42.0566C225.828 42.0566 226.35 41.9541 226.874 41.749C227.403 41.5394 227.779 41.3343 228.002 41.1338H228.07V42.5352C227.637 42.7174 227.195 42.8701 226.744 42.9932C226.293 43.1162 225.819 43.1777 225.322 43.1777C224.055 43.1777 223.066 42.8359 222.355 42.1523C221.645 41.4642 221.289 40.4889 221.289 39.2266C221.289 37.9779 221.629 36.9867 222.308 36.2529C222.991 35.5192 223.889 35.1523 225.001 35.1523C226.031 35.1523 226.824 35.4531 227.38 36.0547C227.94 36.6562 228.221 37.5107 228.221 38.6182V39.3154ZM226.97 38.3311C226.965 37.6566 226.794 37.1348 226.457 36.7656C226.124 36.3965 225.616 36.2119 224.933 36.2119C224.244 36.2119 223.695 36.4147 223.285 36.8203C222.88 37.2259 222.649 37.7295 222.595 38.3311H226.97ZM236.328 43H235.043V36.4443H232.192C232.179 36.8226 232.165 37.1872 232.151 37.5381C232.138 37.889 232.124 38.2057 232.11 38.4883C232.078 39.2493 232.026 39.8577 231.953 40.3135C231.88 40.7646 231.785 41.1406 231.666 41.4414C231.557 41.724 231.434 41.9541 231.297 42.1318C231.165 42.305 231.021 42.4622 230.866 42.6035C230.711 42.7402 230.538 42.8428 230.347 42.9111C230.16 42.9795 229.955 43.0137 229.731 43.0137C229.654 43.0137 229.54 43.0114 229.39 43.0068C229.244 43.0023 229.148 43 229.103 43V41.8789H229.171C229.207 41.8789 229.26 41.8812 229.328 41.8857C229.396 41.8903 229.453 41.8926 229.499 41.8926C229.608 41.8926 229.72 41.8766 229.834 41.8447C229.952 41.8128 230.053 41.7536 230.135 41.667C230.367 41.4391 230.554 41.054 230.695 40.5117C230.837 39.9694 230.93 39.1855 230.976 38.1602C230.994 37.7865 231.01 37.3444 231.023 36.834C231.042 36.319 231.058 35.8291 231.071 35.3643H236.328V43ZM243.636 40.6553C243.636 40.4229 243.595 40.2201 243.513 40.0469C243.435 39.8691 243.305 39.7256 243.123 39.6162C242.932 39.5023 242.713 39.4339 242.467 39.4111C242.225 39.3883 241.877 39.377 241.421 39.377H240.149V41.9746H241.394C241.849 41.9746 242.202 41.9564 242.453 41.9199C242.704 41.8789 242.92 41.8037 243.103 41.6943C243.289 41.5758 243.424 41.4368 243.506 41.2773C243.592 41.1133 243.636 40.9059 243.636 40.6553ZM244.962 40.6348C244.962 41.0039 244.887 41.3389 244.736 41.6396C244.59 41.9404 244.39 42.1842 244.135 42.3711C243.834 42.599 243.513 42.7607 243.171 42.8564C242.829 42.9521 242.389 43 241.852 43H238.864V35.3643H240.149V38.3379H241.886C242.46 38.3379 242.904 38.3675 243.219 38.4268C243.538 38.486 243.854 38.6318 244.169 38.8643C244.433 39.0602 244.632 39.3109 244.764 39.6162C244.896 39.9215 244.962 40.2611 244.962 40.6348ZM253.254 43H251.969V39.5615H248.147V43H246.862V35.3643H248.147V38.4541H251.969V35.3643H253.254V43ZM260.493 40.6553C260.493 40.4229 260.452 40.2201 260.37 40.0469C260.293 39.8691 260.163 39.7256 259.98 39.6162C259.789 39.5023 259.57 39.4339 259.324 39.4111C259.083 39.3883 258.734 39.377 258.278 39.377H257.075V41.9746H258.251C258.707 41.9746 259.06 41.9564 259.311 41.9199C259.561 41.8789 259.778 41.8037 259.96 41.6943C260.147 41.5758 260.281 41.4368 260.363 41.2773C260.45 41.1133 260.493 40.9059 260.493 40.6553ZM261.819 40.6348C261.819 41.0039 261.744 41.3389 261.594 41.6396C261.448 41.9404 261.247 42.1842 260.992 42.3711C260.691 42.599 260.37 42.7607 260.028 42.8564C259.687 42.9521 259.247 43 258.709 43H255.79V35.3643H257.075V38.3379H258.743C259.317 38.3379 259.762 38.3675 260.076 38.4268C260.395 38.486 260.712 38.6318 261.026 38.8643C261.291 39.0602 261.489 39.3109 261.621 39.6162C261.753 39.9215 261.819 40.2611 261.819 40.6348ZM263.098 35.3643H264.383V43H263.098V35.3643ZM273.529 43H271.909L269.742 40.0674L267.562 43H266.064L269.045 39.1924L266.092 35.3643H267.712L269.865 38.249L272.025 35.3643H273.529L270.528 39.124L273.529 43ZM287.345 43H286.073V36.9707L284.173 40.8945H283.216L281.329 36.9707V43H280.126V35.3643H281.678L283.756 39.6367L285.766 35.3643H287.345V43ZM295.808 43H294.529V42.1865C294.415 42.264 294.26 42.3734 294.064 42.5146C293.873 42.6514 293.686 42.7607 293.504 42.8428C293.29 42.9476 293.044 43.0342 292.766 43.1025C292.488 43.1755 292.162 43.2119 291.788 43.2119C291.1 43.2119 290.517 42.984 290.038 42.5283C289.56 42.0726 289.32 41.4915 289.32 40.7852C289.32 40.2064 289.443 39.7393 289.689 39.3838C289.94 39.0238 290.296 38.7412 290.756 38.5361C291.221 38.3311 291.779 38.1921 292.431 38.1191C293.082 38.0462 293.782 37.9915 294.529 37.9551V37.7568C294.529 37.4652 294.477 37.2236 294.372 37.0322C294.272 36.8408 294.126 36.6904 293.935 36.5811C293.752 36.4762 293.534 36.4056 293.278 36.3691C293.023 36.3327 292.757 36.3145 292.479 36.3145C292.141 36.3145 291.765 36.36 291.351 36.4512C290.936 36.5378 290.507 36.6654 290.065 36.834H289.997V35.5283C290.248 35.46 290.61 35.3848 291.084 35.3027C291.558 35.2207 292.025 35.1797 292.485 35.1797C293.023 35.1797 293.49 35.2253 293.887 35.3164C294.288 35.403 294.634 35.5534 294.926 35.7676C295.213 35.9772 295.432 36.2484 295.582 36.5811C295.732 36.9137 295.808 37.3262 295.808 37.8184V43ZM294.529 41.1201V38.9941C294.137 39.0169 293.675 39.0511 293.142 39.0967C292.613 39.1423 292.194 39.2083 291.884 39.2949C291.515 39.3997 291.216 39.5638 290.988 39.7871C290.76 40.0059 290.646 40.3089 290.646 40.6963C290.646 41.1338 290.779 41.4642 291.043 41.6875C291.307 41.9062 291.711 42.0156 292.253 42.0156C292.704 42.0156 293.117 41.929 293.49 41.7559C293.864 41.5781 294.21 41.3662 294.529 41.1201ZM303.895 36.4922H301.133V43H299.848V36.4922H297.086V35.3643H303.895V36.4922ZM311.619 39.3154H305.993C305.993 39.7848 306.064 40.195 306.205 40.5459C306.346 40.8923 306.54 41.1771 306.786 41.4004C307.023 41.6191 307.303 41.7832 307.627 41.8926C307.955 42.002 308.315 42.0566 308.707 42.0566C309.227 42.0566 309.748 41.9541 310.272 41.749C310.801 41.5394 311.177 41.3343 311.4 41.1338H311.469V42.5352C311.036 42.7174 310.594 42.8701 310.143 42.9932C309.691 43.1162 309.217 43.1777 308.721 43.1777C307.454 43.1777 306.465 42.8359 305.754 42.1523C305.043 41.4642 304.688 40.4889 304.688 39.2266C304.688 37.9779 305.027 36.9867 305.706 36.2529C306.39 35.5192 307.287 35.1523 308.399 35.1523C309.429 35.1523 310.222 35.4531 310.778 36.0547C311.339 36.6562 311.619 37.5107 311.619 38.6182V39.3154ZM310.368 38.3311C310.364 37.6566 310.193 37.1348 309.855 36.7656C309.523 36.3965 309.015 36.2119 308.331 36.2119C307.643 36.2119 307.094 36.4147 306.684 36.8203C306.278 37.2259 306.048 37.7295 305.993 38.3311H310.368ZM320.287 39.0898C320.287 39.7096 320.198 40.277 320.021 40.792C319.843 41.3024 319.592 41.7354 319.269 42.0908C318.968 42.4281 318.612 42.6901 318.202 42.877C317.797 43.0592 317.366 43.1504 316.91 43.1504C316.514 43.1504 316.154 43.1071 315.83 43.0205C315.511 42.9339 315.185 42.7995 314.853 42.6172V45.8164H313.567V35.3643H314.853V36.1641C315.194 35.877 315.577 35.6377 316.001 35.4463C316.429 35.2503 316.885 35.1523 317.368 35.1523C318.289 35.1523 319.004 35.501 319.515 36.1982C320.03 36.891 320.287 37.8548 320.287 39.0898ZM318.961 39.124C318.961 38.2035 318.804 37.5153 318.489 37.0596C318.175 36.6038 317.692 36.376 317.04 36.376C316.671 36.376 316.299 36.4557 315.926 36.6152C315.552 36.7747 315.194 36.9844 314.853 37.2441V41.5713C315.217 41.7354 315.529 41.847 315.789 41.9062C316.053 41.9655 316.352 41.9951 316.685 41.9951C317.4 41.9951 317.958 41.7536 318.359 41.2705C318.76 40.7874 318.961 40.0719 318.961 39.124ZM328.723 43H327.451V37.2646L323.452 43H322.29V35.3643H323.562V41.0176L327.52 35.3643H328.723V43ZM337.192 43H335.914V42.1865C335.8 42.264 335.645 42.3734 335.449 42.5146C335.258 42.6514 335.071 42.7607 334.889 42.8428C334.674 42.9476 334.428 43.0342 334.15 43.1025C333.872 43.1755 333.547 43.2119 333.173 43.2119C332.485 43.2119 331.901 42.984 331.423 42.5283C330.944 42.0726 330.705 41.4915 330.705 40.7852C330.705 40.2064 330.828 39.7393 331.074 39.3838C331.325 39.0238 331.68 38.7412 332.141 38.5361C332.605 38.3311 333.164 38.1921 333.815 38.1191C334.467 38.0462 335.167 37.9915 335.914 37.9551V37.7568C335.914 37.4652 335.862 37.2236 335.757 37.0322C335.657 36.8408 335.511 36.6904 335.319 36.5811C335.137 36.4762 334.918 36.4056 334.663 36.3691C334.408 36.3327 334.141 36.3145 333.863 36.3145C333.526 36.3145 333.15 36.36 332.735 36.4512C332.321 36.5378 331.892 36.6654 331.45 36.834H331.382V35.5283C331.632 35.46 331.995 35.3848 332.469 35.3027C332.943 35.2207 333.41 35.1797 333.87 35.1797C334.408 35.1797 334.875 35.2253 335.271 35.3164C335.673 35.403 336.019 35.5534 336.311 35.7676C336.598 35.9772 336.816 36.2484 336.967 36.5811C337.117 36.9137 337.192 37.3262 337.192 37.8184V43ZM335.914 41.1201V38.9941C335.522 39.0169 335.06 39.0511 334.526 39.0967C333.998 39.1423 333.578 39.2083 333.269 39.2949C332.899 39.3997 332.601 39.5638 332.373 39.7871C332.145 40.0059 332.031 40.3089 332.031 40.6963C332.031 41.1338 332.163 41.4642 332.428 41.6875C332.692 41.9062 333.095 42.0156 333.638 42.0156C334.089 42.0156 334.501 41.929 334.875 41.7559C335.249 41.5781 335.595 41.3662 335.914 41.1201ZM345.826 43H344.541V36.4443H341.69C341.677 36.8226 341.663 37.1872 341.649 37.5381C341.636 37.889 341.622 38.2057 341.608 38.4883C341.576 39.2493 341.524 39.8577 341.451 40.3135C341.378 40.7646 341.283 41.1406 341.164 41.4414C341.055 41.724 340.932 41.9541 340.795 42.1318C340.663 42.305 340.519 42.4622 340.364 42.6035C340.209 42.7402 340.036 42.8428 339.845 42.9111C339.658 42.9795 339.453 43.0137 339.229 43.0137C339.152 43.0137 339.038 43.0114 338.888 43.0068C338.742 43.0023 338.646 43 338.601 43V41.8789H338.669C338.705 41.8789 338.758 41.8812 338.826 41.8857C338.895 41.8903 338.951 41.8926 338.997 41.8926C339.106 41.8926 339.218 41.8766 339.332 41.8447C339.451 41.8128 339.551 41.7536 339.633 41.667C339.865 41.4391 340.052 41.054 340.193 40.5117C340.335 39.9694 340.428 39.1855 340.474 38.1602C340.492 37.7865 340.508 37.3444 340.521 36.834C340.54 36.319 340.556 35.8291 340.569 35.3643H345.826V43ZM354.87 39.1855C354.87 40.4297 354.551 41.4118 353.913 42.1318C353.275 42.8519 352.421 43.2119 351.35 43.2119C350.27 43.2119 349.41 42.8519 348.772 42.1318C348.139 41.4118 347.822 40.4297 347.822 39.1855C347.822 37.9414 348.139 36.9593 348.772 36.2393C349.41 35.5146 350.27 35.1523 351.35 35.1523C352.421 35.1523 353.275 35.5146 353.913 36.2393C354.551 36.9593 354.87 37.9414 354.87 39.1855ZM353.544 39.1855C353.544 38.1966 353.35 37.4629 352.963 36.9844C352.576 36.5013 352.038 36.2598 351.35 36.2598C350.652 36.2598 350.11 36.5013 349.723 36.9844C349.34 37.4629 349.148 38.1966 349.148 39.1855C349.148 40.1426 349.342 40.8695 349.729 41.3662C350.117 41.8584 350.657 42.1045 351.35 42.1045C352.033 42.1045 352.569 41.8607 352.956 41.373C353.348 40.8809 353.544 40.1517 353.544 39.1855ZM363.169 40.6895C363.169 41.0586 363.094 41.3867 362.943 41.6738C362.798 41.9609 362.595 42.2002 362.335 42.3916C362.043 42.6058 361.724 42.7607 361.378 42.8564C361.036 42.9521 360.585 43 360.024 43H356.866V35.3643H359.819C360.389 35.3643 360.817 35.3848 361.104 35.4258C361.396 35.4622 361.67 35.5465 361.925 35.6787C362.212 35.8291 362.422 36.0251 362.554 36.2666C362.69 36.5081 362.759 36.793 362.759 37.1211C362.759 37.4993 362.652 37.8275 362.438 38.1055C362.223 38.3835 361.948 38.5999 361.61 38.7549V38.8232C362.062 38.9326 362.433 39.1445 362.725 39.459C363.021 39.7689 363.169 40.179 363.169 40.6895ZM361.439 37.3193C361.439 37.1553 361.403 37.0072 361.33 36.875C361.262 36.7428 361.155 36.6403 361.009 36.5674C360.817 36.4717 360.601 36.4193 360.359 36.4102C360.122 36.3965 359.828 36.3896 359.478 36.3896H358.138V38.4814H359.744C360.081 38.4814 360.33 38.4701 360.489 38.4473C360.653 38.4199 360.817 38.3561 360.981 38.2559C361.155 38.1465 361.273 38.0189 361.337 37.873C361.405 37.7227 361.439 37.5381 361.439 37.3193ZM361.843 40.6963C361.843 40.4456 361.802 40.2428 361.72 40.0879C361.638 39.9284 361.458 39.7826 361.18 39.6504C361.007 39.5684 360.82 39.5205 360.619 39.5068C360.419 39.4886 360.141 39.4795 359.785 39.4795H358.138V41.9746H359.354C359.865 41.9746 360.257 41.9587 360.53 41.9268C360.808 41.8903 361.048 41.8151 361.248 41.7012C361.449 41.5872 361.597 41.4482 361.692 41.2842C361.793 41.1201 361.843 40.9242 361.843 40.6963Z" fill="white"/>
<g clip-path="url(#clip0)">
<path d="M3.43583 17.4574V20.6438V25.3789H0V17.4574H3.43583ZM18.1877 25.3789H21.6244V22.1704V12.5006H16.7226L10.9045 21.3964L4.71967 12.5006H0.000816693V15.9087H3.48319L9.71374 25.3797H12.0046L18.1894 15.9087V25.3797L18.1877 25.3789ZM24.0753 22.1704V15.7091C24.0753 14.824 24.4951 14.0682 25.3354 13.441C26.175 12.8138 27.1983 12.5006 28.4046 12.5006L41.3704 12.5227C42.5766 12.5227 43.6 12.8367 44.4395 13.4631C45.2791 14.0903 45.6997 14.8461 45.6997 15.7312V22.1704C45.6997 23.0555 45.2799 23.8113 44.4395 24.4385C43.6 25.0657 42.5766 25.3789 41.3704 25.3789H28.4046C27.1983 25.3789 26.175 25.0649 25.3354 24.4385C24.4959 23.8113 24.0753 23.0555 24.0753 22.1704ZM42.2867 20.0687V17.5899C42.1797 17.1473 41.8588 16.7568 41.3246 16.4176C40.7897 16.0783 40.1184 15.9087 39.3091 15.9087H30.421C29.6116 15.9087 28.9322 16.0783 28.3825 16.4176C27.8329 16.7568 27.5421 17.1623 27.5119 17.6341V20.1129C27.5119 20.5846 27.7872 20.998 28.3368 21.3523C28.8864 21.7065 29.5741 21.8832 30.3981 21.8832H39.4234C40.156 21.8832 40.8167 21.7025 41.4047 21.3412C41.9927 20.9799 42.2867 20.5555 42.2867 20.0687ZM60.6117 25.3789H57.1758V15.9079H53.2818H48.1506V12.4998H52.4799L65.4457 12.5219L69.775 12.4998V15.9079H60.6117V25.3789ZM84.6869 25.3789H81.2511V15.9079H77.3571H72.2259V12.4998H76.5551L89.521 12.5219L93.8502 12.4998V15.9079H84.6869V25.3789ZM114.901 21.8824H117.926V25.3789H113.596H100.63C99.4242 25.3789 98.4008 25.0649 97.5613 24.4385C96.7217 23.8113 96.3011 23.0555 96.3011 22.1704V17.369H117.926V20.4221H99.737V21.8824H102.623H111.648H114.901ZM96.3011 15.9079V15.7091C96.3011 14.824 96.7209 14.0682 97.5613 13.441C98.4008 12.8138 99.4242 12.5006 100.63 12.5006L113.596 12.5227L117.926 12.5006V15.9087H102.647H101.433H96.302L96.3011 15.9079ZM128.485 20.4221L124.133 25.3789H120.376L125.92 18.8735L120.376 12.5006H124.133L128.485 17.4574V18.5642V20.4229V20.4221Z" fill="#211D25"/>
<path d="M133.891 20.4217H130.18V17.457H133.891L138.243 12.5002H142L136.456 18.8731L142 25.3785H138.243L133.891 20.4217Z" fill="white"/>
<path d="M52.1981 43.0477C51.0751 43.0477 50.0624 42.8073 49.1592 42.3257C48.2559 41.8441 47.5478 41.1814 47.0349 40.3383C46.5221 39.4945 46.2656 38.5447 46.2656 37.489C46.2656 36.4332 46.5221 35.4834 47.0349 34.6396C47.5486 33.7958 48.2592 33.1331 49.1673 32.6523C50.0763 32.1707 51.0915 31.9303 52.2136 31.9303C53.0899 31.9303 53.8919 32.0726 54.6188 32.3573C55.3456 32.642 55.9655 33.0635 56.4784 33.6226L55.4363 34.6009C54.5918 33.742 53.5391 33.3126 52.2773 33.3126C51.4435 33.3126 50.6896 33.4937 50.0167 33.8559C49.3429 34.2181 48.817 34.7179 48.4372 35.3545C48.0575 35.9912 47.868 36.7029 47.868 37.4898C47.868 38.2766 48.0575 38.9884 48.4372 39.625C48.817 40.2616 49.3429 40.7606 50.0167 41.1236C50.6896 41.4858 51.4435 41.6669 52.2773 41.6669C53.5277 41.6669 54.5812 41.2328 55.4363 40.3628L56.4784 41.3411C55.9655 41.9002 55.3423 42.3241 54.6106 42.6143C53.878 42.9046 53.0736 43.0493 52.1973 43.0493L52.1981 43.0477ZM61.8351 43.0169C60.9906 43.0169 60.2319 42.8358 59.5581 42.4736C58.8852 42.1114 58.3584 41.6116 57.9786 40.9749C57.5989 40.3383 57.4094 39.6163 57.4094 38.8089C57.4094 38.0014 57.5997 37.2794 57.9786 36.6428C58.3584 36.0062 58.8843 35.5095 59.5581 35.1521C60.2319 34.7946 60.9906 34.6167 61.8351 34.6167C62.6795 34.6167 63.4358 34.7954 64.1038 35.1521C64.7719 35.5095 65.2954 36.0062 65.6751 36.6428C66.0549 37.2794 66.2444 38.0014 66.2444 38.8089C66.2444 39.6163 66.0541 40.3383 65.6751 40.9749C65.2954 41.6116 64.7719 42.1106 64.1038 42.4736C63.4358 42.8358 62.6795 43.0169 61.8351 43.0169ZM61.8351 41.7128C62.3798 41.7128 62.869 41.591 63.3018 41.3474C63.7347 41.1039 64.0744 40.763 64.3202 40.3225C64.5661 39.8828 64.6894 39.3783 64.6894 38.8089C64.6894 38.2395 64.5661 37.7349 64.3202 37.2944C64.0744 36.8547 63.7347 36.5155 63.3018 36.2774C62.869 36.0394 62.3798 35.92 61.8351 35.92C61.2895 35.92 60.8003 36.0386 60.3683 36.2774C59.9354 36.5155 59.5932 36.8539 59.3417 37.2944C59.0901 37.7349 58.9644 38.2395 58.9644 38.8089C58.9644 39.3783 59.0901 39.8828 59.3417 40.3225C59.5924 40.763 59.9346 41.1039 60.3683 41.3474C60.8011 41.591 61.2903 41.7128 61.8351 41.7128ZM69.8525 36.0766C70.1196 35.6005 70.5157 35.2383 71.0392 34.99C71.5627 34.7417 72.1989 34.6175 72.947 34.6175V36.0615C72.8612 36.0513 72.7444 36.0465 72.5942 36.0465C71.7603 36.0465 71.1053 36.2869 70.63 36.7685C70.1539 37.2502 69.9162 37.9358 69.9162 38.8255V42.9243H68.3768V34.695H69.8517V36.0766H69.8525ZM79.3458 34.6175C80.169 34.6175 80.9065 34.7938 81.5582 35.145C82.2107 35.4969 82.7211 35.9888 83.0895 36.6199C83.4586 37.2517 83.6424 37.9809 83.6424 38.8089C83.6424 39.6369 83.4578 40.3692 83.0895 41.0058C82.7203 41.6424 82.2099 42.1367 81.5582 42.4886C80.9065 42.8405 80.169 43.0161 79.3458 43.0161C78.7365 43.0161 78.1779 42.9022 77.6699 42.6744C77.1619 42.4467 76.7315 42.1153 76.3787 41.6804V45.9342H74.8392V34.6926H76.3142V35.9967C76.6564 35.5412 77.0892 35.1972 77.6136 34.9639C78.1371 34.7306 78.7145 34.6143 79.3449 34.6143L79.3458 34.6175ZM79.2175 41.7136C79.7623 41.7136 80.2515 41.5918 80.6843 41.3482C81.1172 41.1046 81.4594 40.7638 81.7109 40.3233C81.9616 39.8836 82.0874 39.3791 82.0874 38.8097C82.0874 38.2403 81.9616 37.7357 81.7109 37.2952C81.4594 36.8555 81.1172 36.5163 80.6843 36.2782C80.2515 36.0402 79.7623 35.9208 79.2175 35.9208C78.6826 35.9208 78.1991 36.0418 77.7663 36.2853C77.3334 36.5289 76.9912 36.8674 76.7397 37.3023C76.4881 37.7373 76.3624 38.2395 76.3624 38.8089C76.3624 39.3783 76.4857 39.8828 76.7315 40.3225C76.9773 40.763 77.3195 41.1039 77.7581 41.3474C78.1967 41.591 78.6826 41.7128 79.2175 41.7128V41.7136ZM89.4156 43.0177C88.5711 43.0177 87.8124 42.8366 87.1386 42.4744C86.4657 42.1122 85.9389 41.6124 85.5592 40.9757C85.1794 40.3391 84.9899 39.6171 84.9899 38.8097C84.9899 38.0022 85.1802 37.2802 85.5592 36.6436C85.9389 36.007 86.4649 35.5103 87.1386 35.1529C87.8124 34.7954 88.5711 34.6175 89.4156 34.6175C90.26 34.6175 91.0163 34.7962 91.6843 35.1529C92.3524 35.5103 92.8759 36.007 93.2557 36.6436C93.6354 37.2802 93.8249 38.0022 93.8249 38.8097C93.8249 39.6171 93.6346 40.3391 93.2557 40.9757C92.8759 41.6124 92.3524 42.1114 91.6843 42.4744C91.0163 42.8366 90.26 43.0177 89.4156 43.0177ZM89.4156 41.7136C89.9603 41.7136 90.4495 41.5918 90.8824 41.3482C91.3152 41.1046 91.6549 40.7638 91.9008 40.3233C92.1466 39.8836 92.2699 39.3791 92.2699 38.8097C92.2699 38.2403 92.1466 37.7357 91.9008 37.2952C91.6549 36.8555 91.3152 36.5163 90.8824 36.2782C90.4495 36.0402 89.9603 35.9208 89.4156 35.9208C88.87 35.9208 88.3808 36.0394 87.9488 36.2782C87.5159 36.5163 87.1738 36.8547 86.9222 37.2952C86.6707 37.7357 86.5449 38.2403 86.5449 38.8097C86.5449 39.3791 86.6707 39.8836 86.9222 40.3233C87.1729 40.7638 87.5151 41.1046 87.9488 41.3482C88.3816 41.5918 88.8708 41.7136 89.4156 41.7136ZM97.433 36.0774C97.7001 35.6013 98.0962 35.2391 98.6197 34.9908C99.1432 34.7424 99.7794 34.6183 100.527 34.6183V36.0623C100.442 36.0521 100.325 36.0473 100.175 36.0473C99.3408 36.0473 98.6859 36.2877 98.2105 36.7693C97.7344 37.2509 97.4967 37.9366 97.4967 38.8263V42.9251H95.9573V34.6958H97.4322V36.0774H97.433ZM105.499 34.6183C106.675 34.6183 107.576 34.8974 108.201 35.4566C108.827 36.0157 109.139 36.8484 109.139 37.9564V42.9251H107.679V41.8385C107.423 42.2213 107.057 42.5139 106.581 42.7156C106.106 42.9172 105.541 43.0184 104.889 43.0184C103.938 43.0184 103.176 42.7962 102.604 42.351C102.033 41.9058 101.746 41.3205 101.746 40.5961C101.746 39.8717 102.019 39.2889 102.564 38.8492C103.109 38.4095 103.975 38.1897 105.161 38.1897H107.598V37.8947C107.598 37.2533 107.406 36.7614 107.021 36.4198C106.636 36.0781 106.07 35.9073 105.321 35.9073C104.819 35.9073 104.328 35.9872 103.847 36.1485C103.366 36.3091 102.96 36.5234 102.628 36.7931L101.986 35.6748C102.425 35.3332 102.948 35.0722 103.557 34.8911C104.167 34.71 104.813 34.6199 105.498 34.6199L105.499 34.6183ZM105.146 41.8694C105.734 41.8694 106.242 41.7421 106.669 41.489C107.097 41.2351 107.406 40.8753 107.599 40.4095V39.2604H105.226C103.922 39.2604 103.269 39.6851 103.269 40.5337C103.269 40.9481 103.435 41.2739 103.766 41.5119C104.098 41.75 104.558 41.8694 105.146 41.8694ZM116.772 42.4435C116.547 42.6301 116.269 42.7717 115.938 42.8706C115.606 42.9686 115.265 43.0177 114.911 43.0177C114.056 43.0177 113.394 42.7954 112.922 42.3502C112.452 41.905 112.217 41.2683 112.217 40.4403V35.9224H110.774V34.6958H112.217V32.8951H113.756V34.6958H116.193V35.9224H113.756V40.3787C113.756 40.8239 113.871 41.1655 114.101 41.4036C114.33 41.6416 114.66 41.761 115.087 41.761C115.557 41.761 115.958 41.6313 116.29 41.3727L116.771 42.4443L116.772 42.4435ZM118.631 34.6958H120.171V42.9251H118.631V34.6958ZM119.401 33.1118C119.102 33.1118 118.853 33.0184 118.656 32.8326C118.458 32.646 118.359 32.4182 118.359 32.1493C118.359 31.8804 118.458 31.6495 118.656 31.4581C118.853 31.2668 119.102 31.1711 119.401 31.1711C119.701 31.1711 119.949 31.2612 120.147 31.4423C120.345 31.6234 120.443 31.8488 120.443 32.1177C120.443 32.3968 120.345 32.6325 120.147 32.8239C119.949 33.0153 119.7 33.111 119.401 33.111V33.1118ZM126.746 43.0177C125.901 43.0177 125.143 42.8366 124.469 42.4744C123.796 42.1122 123.269 41.6124 122.889 40.9757C122.51 40.3391 122.32 39.6171 122.32 38.8097C122.32 38.0022 122.51 37.2802 122.889 36.6436C123.269 36.007 123.795 35.5103 124.469 35.1529C125.143 34.7954 125.901 34.6175 126.746 34.6175C127.59 34.6175 128.346 34.7962 129.015 35.1529C129.683 35.5103 130.206 36.007 130.586 36.6436C130.966 37.2802 131.155 38.0022 131.155 38.8097C131.155 39.6171 130.965 40.3391 130.586 40.9757C130.206 41.6124 129.683 42.1114 129.015 42.4744C128.346 42.8366 127.59 43.0177 126.746 43.0177ZM126.746 41.7136C127.291 41.7136 127.78 41.5918 128.213 41.3482C128.645 41.1046 128.985 40.7638 129.231 40.3233C129.477 39.8836 129.6 39.3791 129.6 38.8097C129.6 38.2403 129.477 37.7357 129.231 37.2952C128.985 36.8555 128.645 36.5163 128.213 36.2782C127.78 36.0402 127.291 35.9208 126.746 35.9208C126.2 35.9208 125.711 36.0394 125.279 36.2782C124.846 36.5163 124.504 36.8547 124.252 37.2952C124.001 37.7357 123.875 38.2403 123.875 38.8097C123.875 39.3791 124.001 39.8836 124.252 40.3233C124.503 40.7638 124.845 41.1046 125.279 41.3482C125.712 41.5918 126.201 41.7136 126.746 41.7136ZM137.826 34.6175C138.906 34.6175 139.763 34.9204 140.399 35.5254C141.035 36.1311 141.353 37.0184 141.353 38.1881V42.9235H139.814V38.3589C139.814 37.5617 139.616 36.9615 139.22 36.5582C138.825 36.1541 138.258 35.9524 137.52 35.9524C136.687 35.9524 136.029 36.1881 135.548 36.6594C135.067 37.1307 134.827 37.8053 134.827 38.6855V42.9243H133.287V34.695H134.762V35.9374C135.073 35.5127 135.492 35.1869 136.021 34.9591C136.55 34.7314 137.151 34.6175 137.825 34.6175H137.826Z" fill="white"/>
</g>
<rect x="157" y="13" width="1" height="30" fill="#1C1C1C"/>
<defs>
<clipPath id="clip0">
<rect width="142" height="33" fill="white" transform="translate(0 12.5)"/>
</clipPath>
</defs>
</svg>
